<?xml version="1.0" standalone="no"?>
<!DOCTYPE svg PUBLIC "-//W3C//DTD SVG 20010904//EN"
 "http://www.w3.org/TR/2001/REC-SVG-20010904/DTD/svg10.dtd">
<svg version="1.0" xmlns="http://www.w3.org/2000/svg"
 width="599.000000pt" height="599.000000pt" viewBox="0 0 599.000000 599.000000"
 preserveAspectRatio="xMidYMid meet">

<g transform="translate(0.000000,599.000000) scale(0.100000,-0.100000)"
fill="#137dc5" stroke="none">
<path d="M1860 5571 c-817 -208 -1504 -384 -1527 -390 l-43 -12 0 -1678 c0
-1586 1 -1679 18 -1693 9 -8 280 -176 602 -373 322 -197 761 -467 975 -599
l390 -240 503 127 503 127 646 -395 645 -396 517 131 c284 72 526 135 539 140
l22 10 0 578 c0 539 -1 580 -17 594 -10 8 -75 50 -145 92 l-128 78 -2 1531 -3
1532 -155 95 c-945 583 -1818 1114 -1835 1116 -11 2 -688 -167 -1505 -375z
m1800 99 c253 -155 262 -161 258 -165 -1 -2 -207 -55 -457 -119 l-454 -116
-271 166 c-149 92 -276 171 -283 178 -9 8 100 39 445 127 l457 116 60 -37 c33
-20 143 -88 245 -150z m-1017 -246 c152 -93 273 -172 269 -175 -4 -3 -210 -57
-457 -119 l-451 -114 -282 173 c-156 96 -281 176 -278 178 10 10 882 232 902
229 11 -1 145 -79 297 -172z m1638 -135 c153 -94 279 -174 279 -177 0 -12
-898 -235 -916 -228 -10 4 -121 70 -248 148 -316 194 -309 189 -303 195 5 4
881 231 901 232 4 1 134 -76 287 -170z m-2651 -114 c307 -187 285 -173 279
-180 -3 -2 -207 -56 -455 -120 l-449 -115 -145 89 c-341 207 -420 256 -420
262 0 6 901 238 910 234 3 -1 129 -78 280 -170z m1340 -225 l0 -249 -37 -10
c-21 -5 -93 -24 -160 -41 l-122 -30 -278 170 c-153 94 -279 174 -281 178 -2 6
816 223 871 231 4 0 7 -111 7 -249z m90 186 c-18 -23 -30 -20 -30 7 0 32 11
40 29 23 12 -12 12 -18 1 -30z m80 -24 c0 -9 -93 -102 -102 -102 -4 0 -8 12
-8 27 0 39 66 106 92 92 10 -5 18 -13 18 -17z m-11 -118 c-46 -46 -87 -84 -91
-84 -5 0 -8 10 -8 22 0 15 26 49 72 95 61 62 74 70 91 61 18 -9 12 -17 -64
-94z m-2729 56 c0 -5 -4 -10 -10 -10 -5 0 -10 5 -10 10 0 6 5 10 10 10 6 0 10
-4 10 -10z m4539 -165 c219 -135 270 -170 255 -177 -10 -4 -216 -57 -457 -118
l-439 -111 -276 169 c-152 94 -278 174 -279 178 -4 12 854 233 892 230 19 -1
131 -64 304 -171z m-1673 154 c6 -11 -212 -239 -228 -239 -5 0 -8 10 -8 22 0
15 34 57 102 125 101 101 120 114 134 92z m-2796 -26 c0 -10 -72 -83 -82 -83
-19 0 -6 56 18 82 21 21 31 25 45 17 11 -5 19 -13 19 -16z m2867 -18 c6 -18
-261 -275 -285 -275 -12 0 -22 6 -22 12 0 7 60 73 133 146 91 91 138 132 151
130 11 -2 21 -8 23 -13z m-2875 -98 c-74 -74 -77 -77 -80 -51 -3 22 9 39 59
90 53 54 64 61 80 51 17 -11 12 -19 -59 -90z m2935 65 c9 -5 -18 -38 -85 -104
-73 -72 -106 -98 -132 -103 -33 -7 -30 -2 75 104 60 61 114 111 120 111 5 0
16 -4 22 -8z m-2801 -23 c6 -11 -192 -219 -208 -219 -5 0 -8 10 -8 22 0 15 31
54 92 115 91 91 110 104 124 82z m1687 -164 c152 -93 273 -172 269 -176 -8 -7
-881 -229 -900 -229 -15 0 -574 341 -569 347 8 7 892 232 907 230 9 -1 140
-78 293 -172z m1183 144 c11 -19 -96 -118 -136 -125 l-35 -6 70 71 c69 70 87
81 101 60z m-2806 -19 c12 -8 -13 -37 -125 -150 -77 -77 -143 -140 -147 -140
-5 0 -8 12 -8 27 0 22 26 53 122 150 68 68 127 123 133 123 5 0 17 -5 25 -10z
m2869 -19 c21 -14 -2 -38 -47 -51 -48 -13 -51 -6 -17 30 30 32 41 35 64 21z
m-2802 -26 c2 -6 -76 -89 -172 -185 -162 -161 -175 -173 -175 -145 0 25 25 55
158 188 143 144 179 171 189 142z m63 -35 c12 -8 -26 -51 -190 -215 -113 -113
-208 -205 -212 -205 -5 0 -8 10 -8 22 0 16 57 80 192 215 106 106 195 193 198
193 3 0 12 -5 20 -10z m3143 -188 c153 -93 274 -172 270 -175 -14 -8 -881
-227 -900 -227 -15 0 -542 316 -566 339 -4 4 74 29 175 55 101 26 302 78 448
116 146 38 272 67 280 66 8 -2 140 -80 293 -174z m-3075 146 c10 -10 -38 -63
-225 -250 -131 -131 -241 -238 -245 -238 -5 0 -8 12 -8 27 0 22 43 70 222 250
122 123 227 223 233 223 6 0 16 -5 23 -12z m56 -34 c9 -3 16 -11 16 -18 0 -12
-530 -546 -542 -546 -5 0 -8 12 -8 27 0 23 46 74 257 285 142 142 259 258 260
258 1 0 8 -3 17 -6z m-236 -381 c-266 -267 -293 -291 -296 -267 -3 24 34 64
290 321 266 267 293 291 296 267 3 -24 -34 -64 -290 -321z m392 283 c0 -2 -9
-11 -20 -21 -20 -18 -20 -17 -20 14 0 29 2 31 20 21 11 -6 20 -12 20 -14z
m4200 -501 c0 -283 -1 -515 -2 -515 -2 0 -214 -54 -471 -119 -325 -83 -470
-116 -473 -108 -2 7 -3 239 -2 516 l3 505 455 117 c250 64 463 117 473 118 16
1 17 -30 17 -514z m-4149 469 c11 -13 5 -23 -39 -67 l-52 -52 0 35 c0 25 9 43
32 67 36 38 41 39 59 17z m-414 -332 c-231 -231 -267 -263 -287 -257 -20 6 6
36 261 291 258 259 284 282 287 258 3 -24 -30 -61 -261 -292z m412 202 c-80
-81 -84 -83 -87 -58 -3 22 9 40 64 95 58 58 70 66 87 57 18 -9 12 -17 -64 -94z
m35 -75 c-111 -112 -119 -118 -122 -93 -3 23 13 44 99 130 89 89 105 101 122
92 18 -9 8 -21 -99 -129z m1776 -31 c154 -94 278 -173 277 -174 -2 -2 -208
-55 -459 -119 l-456 -115 -281 172 c-155 95 -281 175 -281 178 0 6 867 228
897 229 12 1 148 -76 303 -171z m-1600 104 c0 -4 -67 -75 -150 -157 -149 -149
-150 -150 -150 -115 0 31 13 48 132 167 111 111 134 130 150 122 10 -5 18 -13
18 -17z m-360 -19 c0 -23 -41 -69 -227 -255 -125 -126 -235 -228 -245 -228 -9
0 -20 5 -24 11 -6 11 472 499 488 499 5 0 8 -12 8 -27z m249 -199 c-169 -170
-184 -182 -187 -158 -3 23 20 51 164 195 147 147 170 167 187 157 18 -9 1 -29
-164 -194z m238 141 c2 -6 -94 -107 -212 -225 -197 -197 -215 -212 -215 -185
0 25 29 59 198 228 180 180 219 211 229 182z m2803 -518 l0 -513 -462 -118
c-255 -64 -466 -117 -470 -116 -5 0 -8 231 -8 514 l0 513 143 37 c511 133 755
194 775 195 l22 1 0 -513z m-3491 247 c-178 -178 -204 -201 -221 -191 -16 11
5 34 199 230 199 199 218 215 221 191 3 -24 -24 -55 -199 -230z m758 231 c2
-6 -109 -123 -247 -260 -244 -244 -250 -249 -250 -215 0 32 18 53 228 263 218
219 257 249 269 212z m63 -35 c12 -8 -43 -68 -270 -295 -277 -278 -285 -285
-288 -254 -3 30 14 50 260 296 144 145 267 263 273 263 5 0 17 -5 25 -10z
m-786 -271 c-147 -147 -170 -167 -187 -157 -18 9 -1 29 164 194 169 170 184
182 187 158 3 -23 -20 -51 -164 -195z m519 -121 c-262 -262 -288 -286 -291
-262 -3 24 33 64 285 316 262 262 288 286 291 262 3 -24 -33 -64 -285 -316z
m397 312 c12 -7 11 -13 -10 -34 -13 -15 -27 -26 -32 -26 -12 0 -10 44 4 58 14
14 18 15 38 2z m68 -42 c10 -10 0 -25 -45 -70 -32 -32 -61 -58 -65 -58 -4 0
-8 11 -8 25 0 16 16 42 41 70 44 47 57 53 77 33z m62 -38 c12 -8 -2 -27 -75
-100 -49 -49 -93 -90 -97 -90 -5 0 -8 10 -8 22 0 15 27 50 77 100 43 43 80 78
83 78 3 0 12 -5 20 -10z m-880 -28 c0 -22 -27 -54 -135 -162 -128 -128 -136
-134 -152 -117 -17 16 -10 25 127 162 80 80 148 145 152 145 5 0 8 -12 8 -28z
m388 -279 c-139 -139 -258 -253 -265 -253 -40 0 -3 45 243 291 245 245 269
267 272 243 3 -24 -29 -60 -250 -281z m1902 -227 c0 -481 -1 -515 -17 -520
-10 -3 -214 -55 -453 -116 -239 -61 -443 -113 -452 -116 -17 -5 -18 24 -18
513 l0 518 458 117 c251 64 463 117 470 117 9 1 12 -108 12 -513z m-1342 492
c10 -10 -14 -39 -110 -135 -68 -68 -126 -123 -130 -123 -5 0 -8 10 -8 22 0 15
36 59 112 135 62 62 115 113 118 113 3 0 11 -5 18 -12z m64 -39 c19 -10 9 -23
-138 -170 -87 -87 -162 -159 -166 -159 -5 0 -8 12 -8 27 0 21 30 57 142 170
78 79 144 143 146 143 2 0 13 -5 24 -11z m-1012 -51 c0 -15 -34 -56 -102 -125
-88 -89 -104 -100 -121 -91 -18 9 -9 21 94 124 63 63 117 114 121 114 5 0 8
-10 8 -22z m640 -5 c0 -23 -40 -68 -217 -245 -120 -120 -222 -218 -228 -218
-5 0 -17 5 -25 10 -12 8 33 57 220 245 129 129 238 235 242 235 5 0 8 -12 8
-27z m441 11 c11 -13 -13 -41 -177 -205 -104 -104 -192 -189 -196 -189 -5 0
-8 12 -8 27 0 23 34 62 177 205 98 98 181 178 184 178 4 0 12 -7 20 -16z
m-142 -270 c-123 -123 -227 -224 -231 -224 -5 0 -8 10 -8 22 0 16 62 85 212
235 186 186 214 211 231 201 18 -9 -3 -33 -204 -234z m35 -75 c-142 -142 -262
-259 -266 -259 -5 0 -8 10 -8 22 0 16 71 94 247 270 217 217 249 246 266 236
18 -9 -7 -37 -239 -269z m-1043 138 c-61 -62 -72 -69 -86 -57 -14 12 -7 22 67
97 79 80 83 82 86 57 3 -22 -9 -40 -67 -97z m522 -119 c-103 -103 -193 -188
-200 -188 -39 0 -8 40 178 226 187 187 204 202 207 178 3 -23 -22 -53 -185
-216z m-989 226 c9 -3 16 -12 16 -18 0 -13 -51 -66 -63 -66 -14 0 -7 54 10 72
18 21 16 20 37 12z m1826 -32 c0 -9 -573 -582 -582 -582 -5 0 -8 12 -8 27 0
22 51 78 277 305 235 236 279 275 295 267 10 -5 18 -13 18 -17z m-1752 -15 c9
-10 -5 -29 -58 -82 -68 -68 -70 -69 -70 -40 0 22 13 43 52 82 57 58 60 59 76
40z m-14 -148 c-54 -54 -102 -99 -106 -99 -5 0 -8 10 -8 22 0 15 30 52 87 110
75 75 89 85 106 76 18 -9 11 -19 -79 -109z m1485 -225 c-252 -252 -285 -282
-299 -269 -13 14 18 48 280 310 268 268 295 293 298 269 3 -24 -32 -63 -279
-310z m-1009 298 c0 -35 -58 -96 -83 -86 -9 3 -17 11 -17 17 0 13 80 97 92 97
4 0 8 -13 8 -28z m488 -179 c-84 -84 -158 -153 -165 -153 -39 0 -11 37 143
191 156 156 169 167 172 143 3 -23 -18 -49 -150 -181z m-817 171 c11 -13 -5
-33 -117 -145 -71 -71 -132 -129 -136 -129 -5 0 -8 12 -8 27 0 22 25 53 117
145 65 65 121 118 124 118 4 0 12 -7 20 -16z m67 -62 c-30 -38 -312 -322 -320
-322 -4 0 -8 12 -8 27 0 22 30 58 152 180 130 130 154 150 170 142 16 -9 17
-13 6 -27z m-120 -230 c-186 -185 -203 -200 -206 -176 -3 23 22 53 184 215
165 165 189 186 206 176 16 -11 -3 -33 -184 -215z m1424 -75 c-222 -222 -253
-249 -267 -237 -15 12 13 43 247 277 240 240 263 261 266 237 3 -24 -29 -60
-246 -277z m-1042 268 c0 -27 -12 -32 -29 -12 -8 10 -7 17 1 25 19 19 28 14
28 -13z m640 -2 c0 -22 -25 -53 -117 -145 -65 -65 -122 -118 -128 -118 -5 0
-17 5 -25 10 -12 8 12 36 120 145 74 74 138 135 142 135 5 0 8 -12 8 -27z
m-764 -24 c6 -11 -442 -469 -458 -469 -5 0 -8 12 -8 27 0 22 41 68 212 240
117 117 220 213 230 213 9 0 20 -5 24 -11z m64 -39 c12 -8 -39 -63 -250 -275
-146 -146 -268 -265 -272 -265 -5 0 -8 12 -8 27 0 23 45 72 247 275 137 137
252 248 258 248 5 0 17 -5 25 -10z m618 -157 c-45 -45 -90 -83 -100 -83 -41 0
-25 28 73 126 l104 105 3 -32 c3 -28 -6 -41 -80 -116z m732 119 c0 -22 -39
-66 -213 -240 -160 -160 -217 -211 -230 -206 -9 3 -17 11 -17 17 0 13 440 457
452 457 5 0 8 -12 8 -28z m-1290 -10 c0 -9 -132 -149 -295 -312 -268 -268
-295 -292 -295 -265 0 26 39 69 282 312 156 156 289 283 295 283 7 0 13 -8 13
-18z m80 -41 c0 -6 -4 -13 -10 -16 -5 -3 -10 1 -10 9 0 9 5 16 10 16 6 0 10
-4 10 -9z m4218 -513 l-3 -513 -120 -31 c-66 -17 -132 -34 -147 -38 l-28 -6 0
238 c0 161 -4 246 -12 263 -8 17 -104 81 -295 198 -156 96 -281 177 -277 180
8 8 834 219 862 220 l22 1 -2 -512z m-4158 482 c12 -8 7 -18 -32 -57 l-48 -48
0 34 c0 22 8 43 22 58 23 25 35 28 58 13z m1150 -22 c0 -28 -22 -54 -177 -210
-98 -98 -182 -178 -188 -178 -6 0 -16 5 -23 12 -10 10 30 55 185 210 109 109
199 198 200 198 2 0 3 -14 3 -32z m-1562 -305 c-150 -150 -275 -273 -278 -273
-3 0 -12 5 -20 10 -12 8 44 69 275 300 263 264 290 288 293 264 3 -24 -31 -62
-270 -301z m856 216 c-49 -50 -59 -56 -75 -46 -17 11 -12 18 54 85 69 70 72
72 75 46 3 -21 -8 -39 -54 -85z m-384 71 c12 -8 0 -24 -62 -87 -76 -75 -78
-77 -78 -48 0 22 13 43 57 87 62 63 61 62 83 48z m70 -40 c12 -8 -7 -31 -95
-120 -103 -104 -110 -109 -113 -84 -3 23 12 43 89 120 52 52 96 94 99 94 3 0
12 -5 20 -10z m873 -222 c-81 -81 -150 -148 -153 -148 -3 0 -12 5 -20 10 -12
8 18 43 150 175 152 153 165 163 168 139 3 -23 -18 -49 -145 -176z m-1143 164
c0 -22 -42 -69 -238 -265 -130 -130 -242 -237 -248 -237 -5 0 -15 5 -22 12
-10 10 41 66 240 265 139 139 256 253 260 253 5 0 8 -12 8 -28z m338 15 c9
-10 -22 -46 -133 -157 -144 -144 -145 -145 -145 -110 0 31 13 48 122 157 68
68 128 123 134 123 6 0 16 -6 22 -13z m281 -63 c-18 -19 -26 -21 -41 -13 -19
10 -18 13 18 51 l39 39 3 -26 c2 -18 -4 -36 -19 -51z m-225 30 c9 -3 16 -11
16 -18 0 -6 -79 -90 -175 -186 -173 -173 -175 -174 -175 -140 0 32 15 49 157
192 87 87 159 158 160 158 1 0 8 -3 17 -6z m74 -47 c9 -10 -37 -61 -198 -222
-193 -193 -210 -207 -210 -180 0 25 29 58 192 222 106 106 196 193 199 193 4
0 11 -6 17 -13z m822 -34 c0 -22 -24 -52 -112 -140 -62 -62 -119 -113 -126
-113 -7 0 -15 7 -19 16 -4 11 31 53 118 140 68 68 127 124 131 124 5 0 8 -12
8 -27z m2306 -144 c301 -185 289 -177 283 -183 -2 -2 -207 -56 -456 -119
l-452 -115 -278 171 c-310 190 -288 175 -282 182 4 4 876 231 900 234 4 1 132
-76 285 -170z m-3596 138 c0 -32 -409 -441 -433 -431 -9 3 -17 9 -17 12 0 10
433 442 442 442 5 0 8 -10 8 -23z m309 -253 c-223 -223 -244 -242 -247 -218
-3 24 26 57 224 255 200 200 230 227 247 217 18 -9 -5 -35 -224 -254z m292
210 c11 -13 -24 -52 -262 -290 -267 -267 -274 -274 -277 -243 -3 30 14 50 255
291 142 142 261 258 264 258 4 0 12 -7 20 -16z m-773 -261 c-95 -95 -178 -173
-185 -173 -39 0 -9 38 163 211 174 174 189 187 192 163 3 -23 -21 -51 -170
-201z m525 -115 c-262 -262 -288 -286 -291 -262 -3 24 33 64 285 316 262 262
288 286 291 262 3 -24 -33 -64 -285 -316z m937 315 c0 -21 -19 -46 -77 -105
-79 -80 -87 -85 -113 -68 -12 8 3 28 80 105 52 52 98 95 102 95 5 0 8 -12 8
-27z m-557 -45 c-22 -24 -33 -23 -33 5 0 32 8 38 31 24 17 -10 17 -13 2 -29z
m73 -19 c6 -11 -82 -109 -98 -109 -20 0 -5 53 23 85 31 35 62 45 75 24z m438
-110 c-27 -27 -54 -49 -61 -49 -32 0 -20 27 38 86 62 63 64 64 67 38 3 -21 -7
-37 -44 -75z m-1244 64 c0 -22 -28 -56 -137 -165 -76 -76 -142 -138 -148 -138
-5 0 -17 5 -25 10 -12 8 16 40 140 165 85 85 158 155 162 155 5 0 8 -12 8 -27z
m379 -289 c-231 -232 -265 -262 -282 -252 -18 9 9 39 259 289 254 254 279 277
282 253 3 -24 -30 -61 -259 -290z m490 297 c12 -8 -3 -28 -69 -95 -46 -47 -87
-86 -92 -86 -4 0 -8 12 -8 27 0 20 17 45 67 95 69 70 77 74 102 59z m67 -42
c6 -11 -212 -239 -228 -239 -5 0 -8 10 -8 22 0 15 34 57 102 125 101 101 120
114 134 92z m1354 -502 l0 -513 -462 -117 c-255 -65 -466 -118 -470 -117 -5 0
-8 232 -8 515 l0 515 28 6 c15 4 216 56 447 115 231 59 430 108 443 108 l22 1
0 -513z m116 472 c3 -6 -8 -25 -25 -42 l-31 -32 0 31 c0 44 37 73 56 43z
m-1406 -9 c12 -8 -15 -39 -135 -160 -82 -82 -153 -150 -157 -150 -5 0 -8 10
-8 23 0 16 41 65 133 160 72 76 137 137 142 137 6 0 17 -5 25 -10z m279 -66
c-6 -8 -17 -14 -25 -14 -26 0 -25 22 2 52 l29 30 3 -27 c2 -14 -2 -33 -9 -41z
m-1279 28 c0 -21 -22 -49 -103 -130 -97 -97 -127 -116 -143 -91 -6 11 222 249
238 249 5 0 8 -12 8 -28z m640 0 c0 -22 -41 -68 -228 -255 -172 -172 -232
-226 -245 -221 -9 3 -17 11 -17 17 0 13 470 487 482 487 5 0 8 -12 8 -28z
m1830 8 c12 -8 4 -20 -45 -70 -33 -33 -63 -60 -67 -60 -4 0 -8 12 -8 27 0 19
14 41 42 70 44 45 53 49 78 33z m-1402 -12 c10 -10 -27 -51 -170 -195 -101
-101 -186 -183 -190 -183 -5 0 -8 12 -8 27 0 21 34 61 167 195 92 92 172 168
178 168 6 0 16 -5 23 -12z m1469 -34 c4 -11 -21 -43 -83 -105 -49 -49 -92 -89
-96 -89 -5 0 -8 12 -8 27 0 21 19 46 77 105 79 79 99 91 110 62z m-1407 -4
c12 -8 -28 -53 -200 -225 -118 -118 -218 -215 -222 -215 -5 0 -8 10 -8 22 0
16 60 83 202 225 112 112 205 203 208 203 3 0 12 -5 20 -10z m2810 -523 l0
-514 -462 -117 c-255 -64 -466 -117 -470 -116 -5 0 -8 231 -8 514 l0 513 143
37 c511 133 755 194 775 195 l22 1 0 -513z m-1340 493 c12 -8 -11 -35 -115
-140 -121 -121 -130 -129 -133 -104 -3 23 14 45 110 141 62 62 115 113 118
113 3 0 12 -5 20 -10z m-2671 -126 c-41 -41 -79 -74 -86 -74 -35 0 -18 30 63
111 84 85 89 88 92 63 3 -22 -10 -40 -69 -100z m518 -132 c-183 -183 -196
-193 -217 -182 -22 12 -14 21 191 226 210 210 214 214 217 183 3 -30 -11 -47
-191 -227z m753 248 c12 -8 -36 -60 -235 -260 -137 -137 -253 -250 -257 -250
-5 0 -8 10 -8 22 0 16 69 92 237 260 131 131 240 238 243 238 3 0 12 -5 20
-10z m-1740 -30 c12 -7 11 -13 -10 -34 -30 -33 -40 -33 -40 2 0 42 17 53 50
32z m3208 -2 c10 -10 -21 -46 -145 -170 -87 -87 -161 -158 -165 -158 -5 0 -8
12 -8 27 0 22 29 55 148 170 81 78 149 142 153 143 3 0 10 -5 17 -12z m-1406
-9 c19 -10 -2 -34 -263 -295 -156 -156 -287 -284 -291 -284 -5 0 -8 12 -8 27
0 22 49 77 267 295 147 147 269 268 271 268 2 0 13 -5 24 -11z m-1736 -30 c4
-6 -20 -38 -55 -73 -60 -60 -61 -61 -61 -31 0 21 12 41 42 72 43 44 61 52 74
32z m3198 5 c9 -3 16 -11 16 -17 0 -13 -370 -387 -382 -387 -5 0 -8 12 -8 27
0 23 34 62 177 205 98 98 179 178 180 178 1 0 8 -3 17 -6z m-1716 -362 c-156
-158 -289 -288 -295 -290 -8 -2 -13 6 -13 20 0 17 78 101 293 316 261 262 292
290 295 266 3 -22 -37 -67 -280 -312z m-1418 318 c12 -8 -2 -27 -75 -100 -49
-49 -93 -90 -97 -90 -5 0 -8 10 -8 22 0 15 27 50 77 100 43 43 80 78 83 78 3
0 12 -5 20 -10z m369 -86 c-36 -36 -45 -41 -62 -33 -18 10 -15 15 39 70 58 58
59 59 62 33 3 -20 -6 -37 -39 -70z m519 -121 c-89 -89 -165 -163 -168 -163 -3
0 -12 5 -20 10 -12 8 21 46 165 190 165 166 180 178 183 154 3 -23 -19 -50
-160 -191z m2320 204 c9 -10 -42 -66 -218 -242 -211 -210 -230 -227 -230 -200
0 25 31 61 212 242 117 117 216 213 219 213 4 0 11 -6 17 -13z m-3140 -39 c10
-10 -14 -39 -110 -135 -68 -68 -126 -123 -130 -123 -5 0 -8 12 -8 26 0 21 25
53 107 135 59 60 112 109 118 109 6 0 16 -5 23 -12z m2961 -274 c-240 -241
-264 -262 -267 -238 -3 24 29 59 244 275 218 218 250 247 267 237 18 -9 -8
-37 -244 -274z m-2905 240 c9 -3 16 -11 16 -17 0 -13 -300 -317 -312 -317 -5
0 -8 12 -8 27 0 22 29 56 142 170 79 79 144 143 145 143 1 0 8 -3 17 -6z
m3217 -10 c11 -13 -26 -54 -277 -305 -159 -159 -292 -289 -296 -289 -5 0 -8
12 -8 27 0 23 49 77 277 305 153 153 281 278 284 278 4 0 12 -7 20 -16z
m-1894 -312 c-222 -222 -257 -253 -277 -247 -20 6 5 35 251 281 249 250 274
272 277 248 3 -24 -29 -60 -251 -282z m-1037 269 c0 -37 -11 -45 -36 -27 -18
14 -18 15 0 35 26 29 36 26 36 -8z m513 -153 c-70 -70 -130 -128 -133 -128 -3
0 -12 5 -20 10 -12 8 14 38 130 155 134 135 145 144 148 119 3 -23 -16 -46
-125 -156z m-723 162 c12 -8 -24 -49 -180 -205 -179 -179 -195 -193 -198 -169
-3 23 21 52 175 206 98 98 180 178 183 178 3 0 12 -5 20 -10z m-141 -276
c-123 -123 -227 -224 -231 -224 -5 0 -8 10 -8 22 0 16 62 85 212 235 186 186
214 211 231 201 18 -9 -3 -33 -204 -234z m3291 209 c0 -23 -47 -75 -281 -306
-258 -255 -283 -277 -298 -263 -14 15 9 41 274 306 159 160 293 290 297 290 5
0 8 -12 8 -27z m-3026 -9 c9 -3 16 -11 16 -18 0 -12 -500 -516 -513 -516 -4 0
-7 12 -7 27 0 23 44 72 242 270 134 134 244 243 245 243 1 0 8 -3 17 -6z m634
-161 c-51 -51 -97 -93 -103 -93 -6 0 -16 5 -23 12 -10 10 12 37 100 125 l113
114 3 -32 c3 -29 -6 -42 -90 -126z m742 129 c0 -22 -40 -67 -223 -250 -210
-209 -224 -222 -242 -208 -19 14 -8 27 215 251 129 129 238 235 242 235 5 0 8
-12 8 -28z m-1581 -318 c-267 -267 -294 -292 -297 -268 -3 24 32 63 274 305
245 245 280 277 297 267 18 -9 -11 -41 -274 -304z m2985 -15 c-218 -218 -250
-247 -267 -237 -18 9 8 37 244 274 240 241 264 262 267 238 3 -24 -29 -59
-244 -275z m1604 -127 c1 -210 -1 -382 -4 -382 -4 0 -71 39 -150 88 l-144 87
0 261 0 262 138 35 c75 19 142 34 147 33 6 -2 11 -140 13 -384z m-4579 42
c-252 -252 -285 -282 -299 -269 -13 14 18 48 280 310 268 268 295 293 298 269
3 -24 -32 -63 -279 -310z m411 308 c0 -5 -16 -23 -35 -42 l-35 -34 0 34 c0 44
25 73 51 59 11 -5 19 -13 19 -17z m449 -88 c-69 -69 -67 -68 -89 -54 -12 8 0
25 65 90 76 77 80 80 83 54 3 -22 -9 -39 -59 -90z m711 88 c0 -22 -35 -62
-188 -215 -176 -176 -189 -187 -207 -173 -19 14 -10 25 180 216 110 110 203
200 207 200 5 0 8 -12 8 -28z m-1099 -50 c-5 -9 -37 -44 -70 -77 l-61 -59 0
34 c0 28 10 44 52 87 42 43 55 50 70 42 14 -7 16 -14 9 -27z m2535 -251 c-206
-206 -216 -215 -233 -198 -17 17 -7 28 212 245 218 216 229 226 233 198 3 -26
-17 -50 -212 -245z m-2469 231 c9 -5 -21 -41 -92 -112 -99 -99 -105 -103 -105
-75 0 24 16 46 82 112 83 83 92 89 115 75z m877 -213 c-138 -138 -160 -157
-177 -147 -18 9 -2 27 154 184 160 161 174 172 177 148 3 -23 -19 -50 -154
-185z m-1134 173 c0 -22 -44 -71 -250 -277 -237 -237 -251 -249 -267 -232 -17
16 -5 30 242 277 143 143 263 260 267 260 5 0 8 -12 8 -28z m614 -53 c-15 -16
-33 -29 -40 -29 -30 0 -23 25 17 66 l44 45 3 -27 c3 -18 -5 -35 -24 -55z
m-287 46 c2 -6 -58 -71 -132 -145 -135 -135 -135 -135 -135 -100 0 31 12 47
113 148 77 77 118 112 131 110 11 -2 21 -8 23 -13z m63 -35 c12 -8 -19 -44
-155 -180 -167 -168 -170 -170 -173 -139 -3 30 9 45 145 181 81 81 152 148
158 148 5 0 17 -5 25 -10z m2550 -18 c0 -22 -33 -61 -179 -206 -167 -167 -180
-177 -201 -166 -22 12 -15 20 171 206 107 107 197 194 201 194 5 0 8 -12 8
-28z m-2483 -27 c2 -6 -87 -100 -197 -210 -184 -184 -200 -197 -200 -170 0 25
28 57 183 213 166 167 204 196 214 167z m709 -163 c-110 -111 -127 -124 -141
-112 -14 12 -1 29 122 152 128 129 138 137 141 112 3 -23 -15 -46 -122 -152z
m-1166 141 c0 -22 -41 -68 -213 -241 -202 -202 -215 -214 -237 -202 -22 12
-14 21 206 241 126 126 232 229 236 229 5 0 8 -12 8 -27z m640 7 c0 -13 -5
-18 -15 -14 -16 7 -19 17 -8 27 12 13 23 7 23 -13z m-120 -20 c12 -8 -33 -57
-220 -245 -214 -215 -235 -233 -238 -209 -3 24 25 56 215 246 120 120 220 218
223 218 3 0 12 -5 20 -10z m2420 -43 c0 -15 -45 -67 -149 -171 -132 -132 -152
-148 -166 -136 -14 12 1 31 142 172 87 87 161 158 165 158 5 0 8 -10 8 -23z
m-2352 0 c9 -10 -51 -75 -258 -282 -263 -263 -270 -269 -270 -235 0 32 19 54
247 282 137 137 253 248 259 248 6 0 16 -6 22 -13z m-771 -255 c-164 -164
-188 -184 -202 -172 -15 12 5 35 182 212 182 182 198 196 201 172 3 -24 -22
-53 -181 -212z m1473 210 c0 -37 -167 -206 -193 -196 -9 3 -17 11 -17 17 0 13
190 207 202 207 5 0 8 -12 8 -28z m-652 -7 c-2 -18 -90 -112 -287 -310 -156
-157 -285 -285 -287 -285 -2 0 -4 12 -4 27 0 23 50 78 282 310 156 156 287
283 291 283 5 0 7 -11 5 -25z m84 -40 c0 -5 -5 -11 -11 -13 -6 -2 -11 4 -11
13 0 9 5 15 11 13 6 -2 11 -8 11 -13z m2106 -152 c-62 -62 -115 -113 -118
-113 -3 0 -12 5 -20 10 -12 8 11 35 115 140 121 121 130 129 133 104 3 -23
-14 -45 -110 -141z m-2046 126 c19 -10 18 -13 -23 -55 -24 -24 -47 -44 -51
-44 -18 0 -6 50 18 79 29 35 28 35 56 20z m449 -112 c-52 -53 -62 -59 -76 -47
-14 12 -8 21 57 87 70 71 73 73 76 47 3 -22 -8 -39 -57 -87z m-1231 75 c0 -22
-29 -56 -148 -175 -110 -110 -152 -146 -165 -141 -9 3 -17 11 -17 17 0 13 310
327 322 327 5 0 8 -12 8 -28z m373 -294 c-147 -147 -273 -268 -280 -268 -41 0
-2 46 258 306 258 259 284 282 287 258 3 -24 -31 -62 -265 -296z m477 286 c12
-13 3 -26 -61 -90 -40 -41 -77 -74 -81 -74 -5 0 -8 12 -8 27 0 20 17 44 62 90
34 35 65 63 69 63 4 0 12 -7 19 -16z m-26 -155 c-60 -60 -112 -109 -116 -109
-5 0 -8 10 -8 22 0 15 32 55 97 120 84 84 99 95 116 86 18 -9 10 -20 -89 -119z
m2116 104 c0 -21 -19 -46 -77 -105 -43 -43 -82 -78 -88 -78 -6 0 -16 5 -23 12
-10 10 8 32 80 105 51 51 96 93 100 93 5 0 8 -12 8 -27z m-652 -500 l-3 -516
-440 -112 c-242 -61 -452 -115 -468 -119 l-27 -6 2 517 3 517 455 117 c250 64
461 118 468 118 10 1 12 -105 10 -516z m90 450 c-23 -25 -23 -25 -26 -3 -6 38
5 52 29 40 l21 -12 -24 -25z m-1520 -130 c-79 -79 -146 -143 -150 -143 -5 0
-8 10 -8 22 0 16 41 64 132 155 115 115 133 130 149 120 17 -11 5 -26 -123
-154z m411 91 c-25 -27 -28 -28 -49 -14 -12 8 -8 16 25 50 l40 41 3 -26 c2
-18 -4 -36 -19 -51z m-1269 39 c0 -22 -24 -52 -112 -140 -62 -62 -117 -113
-123 -113 -6 0 -16 5 -23 12 -10 10 15 40 115 140 70 70 131 128 135 128 5 0
8 -12 8 -27z m640 0 c0 -23 -42 -70 -232 -260 -128 -128 -240 -233 -250 -233
-9 0 -20 5 -24 11 -6 11 482 509 498 509 5 0 8 -12 8 -27z m1767 -81 l-57 -57
0 34 c0 26 9 43 40 74 38 38 42 39 58 24 15 -16 13 -21 -41 -75z m-1347 50 c0
-9 -343 -352 -352 -352 -5 0 -8 12 -8 27 0 21 33 60 162 189 137 138 164 162
180 153 10 -5 18 -13 18 -17z m1470 -30 c0 -9 -163 -172 -172 -172 -5 0 -8 12
-8 27 0 21 18 46 72 100 59 60 74 70 90 62 10 -5 18 -13 18 -17z m410 1 c0
-19 -14 -39 -47 -70 -52 -47 -51 -47 -73 -33 -12 8 -4 20 45 70 33 33 63 60
67 60 4 0 8 -12 8 -27z m-2017 -215 c-114 -115 -211 -208 -215 -208 -5 0 -8
10 -8 22 0 16 58 81 197 220 173 173 198 195 215 185 16 -11 -3 -33 -189 -219z
m3309 46 c150 -92 279 -172 286 -179 10 -9 -88 -37 -445 -128 l-457 -116 -271
166 c-148 91 -276 171 -282 177 -10 9 97 40 440 128 248 63 453 116 454 117 2
0 125 -74 275 -165z m-4313 20 c-46 -46 -86 -84 -89 -84 -3 0 -12 5 -20 10
-12 8 4 29 85 110 94 95 100 99 103 74 3 -22 -11 -41 -79 -110z m524 -126
c-109 -109 -205 -198 -215 -198 -9 0 -20 5 -24 11 -4 7 84 102 212 230 214
215 219 219 222 188 3 -30 -11 -47 -195 -231z m847 252 c0 -5 -2 -10 -4 -10
-3 0 -8 5 -11 10 -3 6 -1 10 4 10 6 0 11 -4 11 -10z m1187 -138 c-114 -114
-122 -121 -125 -96 -3 23 13 44 104 135 94 94 109 106 125 96 17 -11 7 -24
-104 -135z m-1291 117 c6 -11 -462 -489 -478 -489 -5 0 -8 10 -8 22 0 16 66
89 227 250 125 126 233 228 240 228 6 0 15 -5 19 -11z m1471 -34 c2 -6 -67
-80 -152 -165 -144 -144 -155 -153 -155 -125 0 25 23 52 138 168 125 126 159
150 169 122z m-1401 -6 c6 -11 -532 -559 -548 -559 -5 0 -8 12 -8 27 0 22 48
75 257 285 142 142 265 258 275 258 9 0 20 -5 24 -11z m1673 -55 c-6 -8 -17
-14 -25 -14 -26 0 -25 22 2 52 l29 30 3 -27 c2 -14 -2 -33 -9 -41z m-209 26
c12 -8 -22 -47 -170 -195 -102 -102 -188 -185 -192 -185 -5 0 -8 12 -8 27 0
22 32 60 167 195 92 93 172 168 178 168 5 0 17 -5 25 -10z m-2766 -111 c-27
-27 -54 -49 -61 -49 -32 0 -20 27 38 86 62 63 64 64 67 38 3 -21 -7 -37 -44
-75z m515 -125 c-151 -152 -174 -171 -191 -161 -16 11 1 31 170 200 172 172
187 185 190 161 3 -23 -20 -51 -169 -200z m821 199 c0 -22 -52 -80 -287 -315
-158 -158 -291 -288 -295 -288 -5 0 -8 12 -8 27 0 23 51 78 287 315 159 159
291 288 295 288 5 0 8 -12 8 -27z m1497 -8 c2 -6 -96 -109 -217 -230 -202
-202 -220 -217 -220 -190 0 25 30 60 203 233 184 185 224 216 234 187z m63
-35 c12 -8 -37 -61 -240 -265 -232 -233 -255 -253 -258 -229 -3 24 28 58 235
266 131 131 240 238 243 238 3 0 12 -5 20 -10z m-1822 -347 c-144 -144 -265
-263 -268 -263 -3 0 -12 5 -20 10 -12 8 42 67 265 290 255 255 280 278 283
254 3 -24 -30 -61 -260 -291z m1892 307 c12 -8 -43 -68 -270 -295 -157 -157
-288 -285 -292 -285 -5 0 -8 12 -8 27 0 23 48 75 267 295 148 148 272 268 278
268 5 0 17 -5 25 -10z m-2920 -28 c0 -44 -27 -63 -60 -42 -12 8 -10 14 15 40
36 37 45 38 45 2z m504 -163 c-120 -121 -140 -136 -157 -127 -18 9 -5 25 134
164 142 143 154 152 157 128 3 -23 -17 -47 -134 -165z m2436 104 c0 -23 -50
-78 -282 -310 -156 -156 -289 -283 -295 -283 -7 0 -13 10 -13 22 0 16 82 105
287 310 159 159 291 288 295 288 5 0 8 -12 8 -27z m110 7 c13 -8 10 -15 -17
-42 l-33 -33 0 31 c0 27 15 54 30 54 3 0 12 -5 20 -10z m-2514 -189 c-100
-100 -107 -105 -123 -88 -17 16 -12 23 102 137 120 121 120 121 123 89 3 -29
-7 -43 -102 -138z m754 142 c0 -23 -41 -69 -227 -255 -125 -126 -234 -228
-241 -228 -7 0 -15 7 -19 16 -4 11 62 83 233 255 131 131 242 239 246 239 5 0
8 -12 8 -27z m1779 -69 c-62 -63 -64 -64 -67 -38 -3 21 7 37 44 75 40 41 50
46 67 37 18 -9 14 -15 -44 -74z m105 40 c9 -3 16 -11 16 -18 0 -6 -43 -54 -95
-106 l-95 -95 0 35 c0 30 11 45 77 112 43 43 78 78 79 78 2 0 9 -3 18 -6z
m-234 -36 c0 -16 -73 -96 -252 -275 -139 -139 -258 -253 -265 -253 -40 0 -3
44 238 286 145 145 267 264 271 264 5 0 8 -10 8 -22z m1648 -501 l2 -507 -22
-10 c-31 -13 -891 -230 -912 -230 -15 0 -16 44 -16 510 0 459 2 511 16 517 44
17 892 231 909 230 20 -2 20 -10 23 -510z m-1454 352 c-120 -121 -129 -128
-132 -103 -3 23 14 45 109 140 98 98 115 111 132 102 18 -9 7 -22 -109 -139z
m-2565 5 c-62 -63 -75 -71 -92 -62 -18 9 -12 18 69 99 84 85 89 88 92 63 3
-22 -10 -40 -69 -100z m721 99 c0 -23 -36 -64 -192 -220 -106 -106 -197 -193
-203 -193 -5 0 -17 5 -25 10 -12 8 27 52 195 220 115 115 213 210 217 210 5 0
8 -12 8 -27z m1879 -179 c-151 -152 -164 -162 -167 -138 -3 23 18 49 144 175
129 129 150 146 167 137 18 -9 4 -26 -144 -174z m-447 -127 c-191 -191 -222
-218 -242 -212 -20 6 1 31 216 246 218 219 239 237 242 213 3 -24 -25 -56
-216 -247z m475 45 c-195 -195 -197 -197 -197 -162 0 33 14 50 180 215 170
169 181 178 197 162 17 -16 7 -28 -180 -215z m-2069 -29 c-89 -89 -168 -163
-175 -163 -39 0 -10 38 153 201 165 165 179 177 182 153 3 -23 -19 -50 -160
-191z m2273 129 c-33 -37 -136 -143 -230 -237 -169 -168 -171 -169 -171 -135
0 32 17 52 212 247 182 182 214 210 230 202 17 -9 13 -16 -41 -77z m-2800 -15
c-34 -35 -42 -39 -56 -27 -14 12 -10 19 37 67 52 53 53 54 56 27 3 -21 -6 -37
-37 -67z m2916 45 c8 -5 -75 -95 -252 -272 -242 -242 -265 -262 -265 -235 0
26 34 64 242 272 134 134 247 243 253 243 5 0 15 -4 22 -8z m-577 -39 c0 -23
-35 -63 -182 -210 -101 -101 -190 -183 -200 -183 -9 0 -20 5 -24 11 -6 11 382
409 398 409 5 0 8 -12 8 -27z m640 -11 c0 -9 -130 -147 -290 -307 -264 -264
-290 -287 -290 -260 0 26 38 68 277 307 153 153 284 278 290 278 7 0 13 -8 13
-18z m-2417 -184 c-70 -70 -133 -128 -140 -128 -38 0 -13 35 118 166 133 134
144 143 147 118 3 -23 -16 -46 -125 -156z m-523 142 c0 -32 -1 -33 -24 -24
-19 7 -21 25 -4 42 19 19 28 14 28 -18z m2668 -357 c-150 -150 -279 -273 -286
-273 -7 0 -15 7 -19 16 -4 12 75 97 283 305 281 281 289 289 292 258 3 -30
-15 -50 -270 -306z m-368 305 c0 -16 -47 -70 -152 -175 -84 -84 -158 -153
-165 -153 -38 0 -11 36 138 186 90 90 167 164 171 164 5 0 8 -10 8 -22z
m-1650 -45 c0 -21 -21 -49 -92 -120 -88 -88 -118 -107 -134 -82 -6 11 202 229
218 229 5 0 8 -12 8 -27z m1529 -209 c-107 -107 -125 -121 -142 -112 -18 9 -6
23 119 149 129 129 139 138 142 113 3 -23 -15 -46 -119 -150z m519 -121 c-133
-133 -245 -243 -248 -243 -3 0 -12 5 -20 10 -12 8 38 62 245 270 237 237 260
258 263 234 3 -24 -28 -59 -240 -271z m-2105 144 c-61 -66 -78 -76 -96 -58 -8
8 10 33 68 92 76 75 80 78 83 54 3 -21 -9 -40 -55 -88z m1707 15 c0 -21 -20
-47 -90 -117 -85 -85 -91 -89 -107 -72 -17 16 -12 22 82 117 55 55 103 100
107 100 5 0 8 -12 8 -28z m433 -234 c-114 -114 -210 -208 -213 -208 -3 0 -12
5 -20 10 -12 8 30 55 210 235 206 206 225 223 228 199 3 -24 -24 -55 -205
-236z m-2114 136 c-27 -27 -35 -31 -52 -23 -18 10 -16 14 29 60 49 50 49 50
52 23 3 -19 -5 -36 -29 -60z m1681 -10 c0 -18 -17 -43 -53 -81 -49 -51 -55
-55 -76 -43 -23 12 -22 13 45 81 38 38 72 69 76 69 5 0 8 -12 8 -26z m640 -1
c0 -23 -33 -61 -172 -200 -95 -95 -178 -173 -183 -173 -6 0 -16 5 -23 12 -10
10 28 52 175 200 103 103 191 188 195 188 5 0 8 -12 8 -27z m-2290 -33 c0 -21
-15 -27 -25 -10 -7 12 2 30 16 30 5 0 9 -9 9 -20z m1626 -118 c-21 -22 -27
-23 -41 -12 -14 12 -12 17 22 52 l38 39 3 -27 c3 -18 -4 -35 -22 -52z m664 49
c0 -23 -26 -54 -138 -170 -76 -77 -143 -141 -148 -141 -5 0 -16 5 -24 10 -12
8 17 41 145 170 88 88 161 160 162 160 2 0 3 -13 3 -29z m-107 -243 c-59 -59
-113 -108 -120 -108 -37 0 -15 33 98 146 116 116 124 123 127 98 3 -23 -13
-44 -105 -136z m107 24 c0 -21 -18 -45 -74 -102 -67 -66 -77 -72 -98 -63 -22
10 -20 14 66 102 49 50 93 91 98 91 4 0 8 -12 8 -28z m-36 -173 c-38 -39 -67
-49 -80 -28 -3 6 20 37 52 70 l59 60 3 -32 c3 -25 -4 -39 -34 -70z m28 -71
c-6 -6 -20 -7 -32 -3 -22 7 -22 7 7 37 l28 30 3 -27 c2 -15 -1 -32 -6 -37z"/>
</g>
</svg>
